<?xml version="1.0" encoding="utf-8"?>
<!-- Generator: Adobe Illustrator 19.0.0, SVG Export Plug-In . SVG Version: 6.00 Build 0)  -->
<!DOCTYPE svg PUBLIC "-//W3C//DTD SVG 1.1//EN" "http://www.w3.org/Graphics/SVG/1.1/DTD/svg11.dtd">
<svg version="1.1" id="Layer_1" xmlns="http://www.w3.org/2000/svg" xmlns:xlink="http://www.w3.org/1999/xlink" x="0px" y="0px"
	 viewBox="0 0 40 40" enable-background="new 0 0 40 40" xml:space="preserve">
<path id="XMLID_2_" fill="#231F20" d="M20,0C9,0,0,9,0,20s9,20,20,20s20-9,20-20S31,0,20,0z M26,19.2h-3.5c0,5,0,11.7,0,11.7h-5
	c0,0,0-6.6,0-11.7h-3.3v-3.3h3.3v-1.9c0-1.8,0.6-4.7,4.4-4.7l3.9,0v3.8c0,0-1.9,0-2.3,0c-0.4,0-1,0.2-1,1.1v1.7h3.9L26,19.2z"/>
</svg>
