<?xml version="1.0" encoding="UTF-8" standalone="no"?>
<svg width="40px" height="40px" viewBox="0 0 40 40" version="1.1" xmlns="http://www.w3.org/2000/svg" xmlns:xlink="http://www.w3.org/1999/xlink" xmlns:sketch="http://www.bohemiancoding.com/sketch/ns">
    <!-- Generator: Sketch 3.4.2 (15855) - http://www.bohemiancoding.com/sketch -->
    <title>Icon - Mail</title>
    <desc>Created with Sketch.</desc>
    <defs></defs>
    <g id="Mockups---version-0.1" stroke="none" stroke-width="1" fill="none" fill-rule="evenodd" sketch:type="MSPage">
        <g id="MVP---option-2" sketch:type="MSArtboardGroup" transform="translate(-723.000000, -3920.000000)" fill="#FFFFFF">
            <g id="Updates" sketch:type="MSLayerGroup" transform="translate(0.000000, 3520.000000)">
                <g id="Social-icons" transform="translate(603.000000, 400.000000)" sketch:type="MSShapeGroup">
                    <g id="Icon---Mail" transform="translate(120.000000, 0.000000)">
                        <path d="M30.8333333,15.6603 L20,21.3103 L9.16666667,15.6603 L9.16666667,12.8336333 L30.8333333,12.8336333 L30.8333333,15.6603 Z M30.8333333,25.4003 L23.6466667,21.1769667 L30.8333333,17.4253 L30.8333333,25.4003 Z M30.8333333,29.1669667 L9.16666667,29.1669667 L9.16666667,27.3753 L18.0716667,22.0719667 L20,23.0786333 L21.905,22.0853 L30.8333333,27.3336333 L30.8333333,29.1669667 Z M9.16666667,17.4253 L16.335,21.1653 L9.16666667,25.4353 L9.16666667,17.4253 Z M20,0.0003 C8.97166667,0.0003 0,8.97196667 0,20.0003 C0,31.0269667 8.97166667,40.0003 20,40.0003 C31.0283333,40.0003 40,31.0269667 40,20.0003 C40,8.97196667 31.0283333,0.0003 20,0.0003 L20,0.0003 Z" id="Fill-452"></path>
                    </g>
                </g>
            </g>
        </g>
    </g>
</svg>