<?xml version="1.0" encoding="UTF-8" standalone="no"?>
<svg width="161px" height="160px" viewBox="0 0 161 160" version="1.1" xmlns="http://www.w3.org/2000/svg" xmlns:xlink="http://www.w3.org/1999/xlink" xmlns:sketch="http://www.bohemiancoding.com/sketch/ns">
    <!-- Generator: Sketch 3.4.2 (15855) - http://www.bohemiancoding.com/sketch -->
    <title>Icon</title>
    <desc>Created with Sketch.</desc>
    <defs></defs>
    <g id="Mockups---version-0.1" stroke="none" stroke-width="1" fill="none" fill-rule="evenodd" sketch:type="MSPage">
        <g id="MVP---option-2" sketch:type="MSArtboardGroup" transform="translate(-602.000000, -3220.000000)">
            <g id="Business-model" sketch:type="MSLayerGroup" transform="translate(202.000000, 2992.000000)">
                <g id="Step-2" transform="translate(400.000000, 228.000000)">
                    <g id="Icon">
                        <circle id="Oval-26" fill="#4AA0D5" sketch:type="MSShapeGroup" cx="80.5" cy="80.25" r="79.75"></circle>
                        <g id="Payment-icon" transform="translate(44.750000, 45.750000)" stroke="#FFFFFF" stroke-width="3" sketch:type="MSShapeGroup" stroke-linejoin="round">
                            <path d="M13.0625,66.31875 L0.5625,66.31875 L0.5625,41.1875 L13.0625,41.1875 L13.0625,66.31875 Z" id="Stroke-1280"></path>
                            <path d="M13.0625,61.5 C45.875,72.4375 34.9375,72.4375 72.4375,53.6875 C69.115625,50.365625 66.49375,49.584375 63.0625,50.5625 L49.20625,55.159375" id="Stroke-1281" stroke-linecap="round"></path>
                            <path d="M13.0625,44.3125 L22.4375,44.3125 C29.7875,44.3125 34.9375,49 36.5,50.5625 L45.875,50.5625 C50.85625,50.5625 50.85625,56.8125 45.875,56.8125 L28.6875,56.8125" id="Stroke-1282" stroke-linecap="round"></path>
                            <path d="M44.3125,9.9375 C44.3125,15.115625 48.509375,19.3125 53.6875,19.3125 C58.865625,19.3125 63.0625,15.115625 63.0625,9.9375 C63.0625,4.759375 58.865625,0.5625 53.6875,0.5625 C48.509375,0.5625 44.3125,4.759375 44.3125,9.9375 L44.3125,9.9375 Z" id="Stroke-1283" stroke-linecap="round"></path>
                            <path d="M28.6875,31.8125 C28.6875,36.990625 32.884375,41.1875 38.0625,41.1875 C43.240625,41.1875 47.4375,36.990625 47.4375,31.8125 C47.4375,26.634375 43.240625,22.4375 38.0625,22.4375 C32.884375,22.4375 28.6875,26.634375 28.6875,31.8125 L28.6875,31.8125 Z" id="Stroke-1284" stroke-linecap="round"></path>
                            <path d="M38,28.6875 L38,34.9375" id="Stroke-1285" stroke-linecap="round"></path>
                            <path d="M53,6.8125 L53,13.0625" id="Stroke-1286" stroke-linecap="round"></path>
                        </g>
                        <g id="number" transform="translate(2.000000, 0.000000)">
                            <circle id="Oval-27" fill="#F37A7D" sketch:type="MSShapeGroup" cx="20" cy="20.5" r="20"></circle>
                            <text id="2" sketch:type="MSTextLayer" font-family="Sofia Pro Soft" font-size="30" font-weight="normal" fill="#FFFFFF">
                                <tspan x="12" y="31">2</tspan>
                            </text>
                        </g>
                    </g>
                </g>
            </g>
        </g>
    </g>
</svg>