<?xml version="1.0" encoding="UTF-8" standalone="no"?>
<svg width="161px" height="160px" viewBox="0 0 161 160" version="1.1" xmlns="http://www.w3.org/2000/svg" xmlns:xlink="http://www.w3.org/1999/xlink" xmlns:sketch="http://www.bohemiancoding.com/sketch/ns">
    <!-- Generator: Sketch 3.4.2 (15855) - http://www.bohemiancoding.com/sketch -->
    <title>Icon</title>
    <desc>Created with Sketch.</desc>
    <defs></defs>
    <g id="Mockups---version-0.1" stroke="none" stroke-width="1" fill="none" fill-rule="evenodd" sketch:type="MSPage">
        <g id="MVP---option-2" sketch:type="MSArtboardGroup" transform="translate(-902.000000, -3220.000000)">
            <g id="Business-model" sketch:type="MSLayerGroup" transform="translate(202.000000, 2992.000000)">
                <g id="Step-3" transform="translate(700.000000, 228.000000)">
                    <g id="Icon">
                        <circle id="Oval-26" fill="#4AA0D5" sketch:type="MSShapeGroup" cx="80.5" cy="80.25" r="79.75"></circle>
                        <g id="Percentage-icon" transform="translate(44.000000, 43.750000)" stroke="#FFFFFF" stroke-width="3" sketch:type="MSShapeGroup" stroke-linejoin="round">
                            <path d="M23.4565217,49.5434783 L49.5434783,23.4565217" id="Stroke-1042" stroke-linecap="round"></path>
                            <path d="M31.6086957,26.7173913 C31.6086957,29.4206522 29.4173913,31.6086957 26.7173913,31.6086957 C24.0173913,31.6086957 21.826087,29.4206522 21.826087,26.7173913 C21.826087,24.0173913 24.0173913,21.826087 26.7173913,21.826087 C29.4173913,21.826087 31.6086957,24.0173913 31.6086957,26.7173913 L31.6086957,26.7173913 Z" id="Stroke-1043" stroke-linecap="round"></path>
                            <path d="M51.173913,46.2826087 C51.173913,48.9858696 48.9826087,51.173913 46.2826087,51.173913 C43.5826087,51.173913 41.3913043,48.9858696 41.3913043,46.2826087 C41.3913043,43.5826087 43.5826087,41.3913043 46.2826087,41.3913043 C48.9826087,41.3913043 51.173913,43.5826087 51.173913,46.2826087 L51.173913,46.2826087 Z" id="Stroke-1044" stroke-linecap="round"></path>
                            <path d="M72.3695652,36.5 C72.3695652,56.3097826 56.3130435,72.3695652 36.5,72.3695652 C16.6934783,72.3695652 0.630434783,56.3097826 0.630434783,36.5 C0.630434783,16.6902174 16.6934783,0.630434783 36.5,0.630434783 C56.3130435,0.630434783 72.3695652,16.6902174 72.3695652,36.5 L72.3695652,36.5 Z" id="Stroke-1045"></path>
                        </g>
                        <g id="number" transform="translate(2.000000, 0.000000)">
                            <circle id="Oval-27" fill="#F37A7D" sketch:type="MSShapeGroup" cx="20" cy="20.5" r="20"></circle>
                            <text id="3" sketch:type="MSTextLayer" font-family="Sofia Pro Soft" font-size="30" font-weight="normal" fill="#FFFFFF">
                                <tspan x="12" y="31">3</tspan>
                            </text>
                        </g>
                    </g>
                </g>
            </g>
        </g>
    </g>
</svg>