<?xml version="1.0" encoding="UTF-8" standalone="no"?>
<svg width="160px" height="160px" viewBox="0 0 160 160" version="1.1" xmlns="http://www.w3.org/2000/svg" xmlns:xlink="http://www.w3.org/1999/xlink" xmlns:sketch="http://www.bohemiancoding.com/sketch/ns">
    <!-- Generator: Sketch 3.4.2 (15855) - http://www.bohemiancoding.com/sketch -->
    <title>Icon</title>
    <desc>Created with Sketch.</desc>
    <defs></defs>
    <g id="Mockups---version-0.1" stroke="none" stroke-width="1" fill="none" fill-rule="evenodd" sketch:type="MSPage">
        <g id="MVP---option-2" sketch:type="MSArtboardGroup" transform="translate(-303.000000, -3220.000000)">
            <g id="Business-model" sketch:type="MSLayerGroup" transform="translate(202.000000, 2992.000000)">
                <g id="Step-1" transform="translate(101.000000, 228.000000)">
                    <g id="Icon">
                        <circle id="Oval-26" fill="#4AA0D5" sketch:type="MSShapeGroup" cx="80" cy="80.25" r="79.75"></circle>
                        <g id="Advertentie-icon" transform="translate(43.750000, 43.750000)" stroke="#FFFFFF" stroke-width="3" sketch:type="MSShapeGroup" stroke-linecap="round" stroke-linejoin="round">
                            <path d="M72.4375,66.1875 C72.4375,69.6375 69.640625,72.4375 66.1875,72.4375 L6.8125,72.4375 C3.3625,72.4375 0.5625,69.6375 0.5625,66.1875 L0.5625,6.8125 C0.5625,3.3625 3.3625,0.5625 6.8125,0.5625 L66.1875,0.5625 C69.640625,0.5625 72.4375,3.3625 72.4375,6.8125 L72.4375,66.1875 L72.4375,66.1875 Z" id="Stroke-643"></path>
                            <path d="M0.5625,16 L72.4375,16" id="Stroke-644"></path>
                            <path d="M63.0625,41.1875 L41.1875,41.1875 L41.1875,25.5625 L63.0625,25.5625 L63.0625,41.1875 Z" id="Stroke-645"></path>
                            <path d="M63.0625,63.0625 L41.1875,63.0625 L41.1875,47.4375 L63.0625,47.4375 L63.0625,63.0625 Z" id="Stroke-646"></path>
                            <path d="M31.8125,25.5625 L9.9375,25.5625 L9.9375,50.5625 L31.8125,50.5625 L31.8125,25.5625 Z" id="Stroke-647"></path>
                            <path d="M25.5625,36.5 C25.5625,39.0875 23.4625,41.1875 20.875,41.1875 C18.2875,41.1875 16.1875,39.0875 16.1875,36.5 C16.1875,33.9125 18.2875,31.8125 20.875,31.8125 C23.4625,31.8125 25.5625,33.9125 25.5625,36.5 L25.5625,36.5 Z" id="Stroke-648"></path>
                            <path d="M28.6875,50.5625 L13.0625,50.5625 C13.0625,45.384375 16.559375,41.1875 20.875,41.1875 C25.190625,41.1875 28.6875,45.384375 28.6875,50.5625 L28.6875,50.5625 Z" id="Stroke-649"></path>
                            <path d="M11.5,56 L24,56" id="Stroke-650"></path>
                            <path d="M11.5,63 L24,63" id="Stroke-651"></path>
                            <path d="M13.0625,8.375 C13.0625,9.2375 12.3625,9.9375 11.5,9.9375 C10.6375,9.9375 9.9375,9.2375 9.9375,8.375 C9.9375,7.5125 10.6375,6.8125 11.5,6.8125 C12.3625,6.8125 13.0625,7.5125 13.0625,8.375 L13.0625,8.375 Z" id="Stroke-652"></path>
                            <path d="M22.4375,8.375 C22.4375,9.2375 21.7375,9.9375 20.875,9.9375 C20.0125,9.9375 19.3125,9.2375 19.3125,8.375 C19.3125,7.5125 20.0125,6.8125 20.875,6.8125 C21.7375,6.8125 22.4375,7.5125 22.4375,8.375 L22.4375,8.375 Z" id="Stroke-653"></path>
                            <path d="M31.8125,8.375 C31.8125,9.2375 31.1125,9.9375 30.25,9.9375 C29.3875,9.9375 28.6875,9.2375 28.6875,8.375 C28.6875,7.5125 29.3875,6.8125 30.25,6.8125 C31.1125,6.8125 31.8125,7.5125 31.8125,8.375 L31.8125,8.375 Z" id="Stroke-654"></path>
                        </g>
                        <g id="number" transform="translate(1.000000, 0.000000)">
                            <circle id="Oval-27" fill="#F37A7D" sketch:type="MSShapeGroup" cx="20" cy="20.5" r="20"></circle>
                            <text id="1" sketch:type="MSTextLayer" font-family="Sofia Pro Soft" font-size="30" font-weight="normal" fill="#FFFFFF">
                                <tspan x="15" y="31">1</tspan>
                            </text>
                        </g>
                    </g>
                </g>
            </g>
        </g>
    </g>
</svg>