<?xml version="1.0" encoding="UTF-8" standalone="no"?>
<svg width="101px" height="100px" viewBox="0 0 101 100" version="1.1" xmlns="http://www.w3.org/2000/svg" xmlns:xlink="http://www.w3.org/1999/xlink" xmlns:sketch="http://www.bohemiancoding.com/sketch/ns">
    <!-- Generator: Sketch 3.4.2 (15855) - http://www.bohemiancoding.com/sketch -->
    <title>Building icon</title>
    <desc>Created with Sketch.</desc>
    <defs></defs>
    <g id="Mockups---version-0.1" stroke="none" stroke-width="1" fill="none" fill-rule="evenodd" sketch:type="MSPage">
        <g id="MVP---option-2" sketch:type="MSArtboardGroup" transform="translate(-482.000000, -1020.000000)">
            <g id="Probleemstelling" sketch:type="MSLayerGroup" transform="translate(-1.000000, 723.000000)">
                <g id="Buitenschoolse-opvang" transform="translate(402.590044, 276.000000)" sketch:type="MSShapeGroup">
                    <g id="Content" transform="translate(0.527086, 0.500000)">
                        <g id="Building-icon" transform="translate(80.000000, 20.000000)">
                            <circle id="Oval-32" fill="#4AA0D5" cx="50.6632504" cy="50.5" r="50"></circle>
                            <g id="Icon" transform="translate(25.663250, 25.500000)" stroke="#FFFFFF" stroke-width="1.5" stroke-linejoin="round">
                                <path d="M49.614726,0.385273973 L0.385273973,0.385273973 L0.385273973,49.614726 L49.614726,49.614726 L49.614726,0.385273973 Z" id="Stroke-5977"></path>
                                <path d="M32.4914384,42.1232877 C32.4914384,37.9837329 29.1395548,34.6318493 25,34.6318493 C20.8625856,34.6318493 17.5085616,37.9837329 17.5085616,42.1232877 L17.5085616,49.614726 L32.4914384,49.614726 L32.4914384,42.1232877 L32.4914384,42.1232877 Z" id="Stroke-5978"></path>
                                <path d="M45.3339041,32.4914384 L36.7722603,32.4914384 L36.7722603,43.1934932 L45.3339041,43.1934932 L45.3339041,32.4914384 Z" id="Stroke-5979"></path>
                                <path d="M13.2277397,32.4914384 L4.66609589,32.4914384 L4.66609589,43.1934932 L13.2277397,43.1934932 L13.2277397,32.4914384 Z" id="Stroke-5980"></path>
                                <path d="M15.3681507,15.3681507 L4.66609589,15.3681507 L4.66609589,4.66609589 L15.3681507,4.66609589 L15.3681507,15.3681507 Z" id="Stroke-5981"></path>
                                <path d="M30.3510274,15.3681507 L19.6489726,15.3681507 L19.6489726,4.66609589 L30.3510274,4.66609589 L30.3510274,15.3681507 Z" id="Stroke-5982"></path>
                                <path d="M45.3339041,15.3681507 L34.6318493,15.3681507 L34.6318493,4.66609589 L45.3339041,4.66609589 L45.3339041,15.3681507 Z" id="Stroke-5983"></path>
                                <path d="M15.3681507,26.0702055 L4.66609589,26.0702055 L4.66609589,15.3681507 L15.3681507,15.3681507 L15.3681507,26.0702055 Z" id="Stroke-5984"></path>
                                <path d="M30.3510274,26.0702055 L19.6489726,26.0702055 L19.6489726,15.3681507 L30.3510274,15.3681507 L30.3510274,26.0702055 Z" id="Stroke-5985"></path>
                                <path d="M45.3339041,26.0702055 L34.6318493,26.0702055 L34.6318493,15.3681507 L45.3339041,15.3681507 L45.3339041,26.0702055 Z" id="Stroke-5986"></path>
                            </g>
                        </g>
                    </g>
                </g>
            </g>
        </g>
    </g>
</svg>