<?xml version="1.0" encoding="UTF-8" standalone="no"?>
<svg width="40px" height="40px" viewBox="0 0 40 40" version="1.1" xmlns="http://www.w3.org/2000/svg" xmlns:xlink="http://www.w3.org/1999/xlink" xmlns:sketch="http://www.bohemiancoding.com/sketch/ns">
    <!-- Generator: Sketch 3.4.2 (15855) - http://www.bohemiancoding.com/sketch -->
    <title>Icon - Facebook</title>
    <desc>Created with Sketch.</desc>
    <defs></defs>
    <g id="Mockups---version-0.1" stroke="none" stroke-width="1" fill="none" fill-rule="evenodd" sketch:type="MSPage">
        <g id="MVP---option-2" sketch:type="MSArtboardGroup" transform="translate(-603.000000, -3920.000000)" fill="#FFFFFF">
            <g id="Updates" sketch:type="MSLayerGroup" transform="translate(0.000000, 3520.000000)">
                <g id="Social-icons" transform="translate(603.000000, 400.000000)" sketch:type="MSShapeGroup">
                    <g id="Icon---Facebook">
                        <path d="M25.9913667,19.1666667 L22.4997,19.1666667 L22.4997,30.8333333 L17.4997,30.8333333 L17.4997,19.1666667 L14.1663667,19.1666667 L14.1663667,15.8333333 L17.4997,15.8333333 L17.4997,13.8933333 C17.4997,12.0616667 18.0863667,9.19666667 21.9163667,9.19666667 L25.8330333,9.20666667 L25.8330333,13.05 L23.4863667,13.05 C23.0797,13.05 22.4997,13.2566667 22.4997,14.1283333 L22.4997,15.8333333 L26.3980333,15.8333333 L25.9913667,19.1666667 Z M19.9997,0 C8.97136667,0 -0.0003,8.97166667 -0.0003,20 C-0.0003,31.0283333 8.97136667,40 19.9997,40 C31.0280333,40 39.9997,31.0283333 39.9997,20 C39.9997,8.97166667 31.0280333,0 19.9997,0 L19.9997,0 Z" id="Fill-403"></path>
                    </g>
                </g>
            </g>
        </g>
    </g>
</svg>