<?xml version="1.0" encoding="UTF-8" standalone="no"?>
<svg width="40px" height="40px" viewBox="0 0 40 40" version="1.1" xmlns="http://www.w3.org/2000/svg" xmlns:xlink="http://www.w3.org/1999/xlink" xmlns:sketch="http://www.bohemiancoding.com/sketch/ns">
    <!-- Generator: Sketch 3.4.2 (15855) - http://www.bohemiancoding.com/sketch -->
    <title>Icon - Twitter</title>
    <desc>Created with Sketch.</desc>
    <defs></defs>
    <g id="Mockups---version-0.1" stroke="none" stroke-width="1" fill="none" fill-rule="evenodd" sketch:type="MSPage">
        <g id="MVP---option-2" sketch:type="MSArtboardGroup" transform="translate(-663.000000, -3920.000000)" fill="#FFFFFF">
            <g id="Updates" sketch:type="MSLayerGroup" transform="translate(0.000000, 3520.000000)">
                <g id="Social-icons" transform="translate(603.000000, 400.000000)" sketch:type="MSShapeGroup">
                    <g id="Icon---Twitter" transform="translate(60.000000, 0.000000)">
                        <path d="M28.7697,15.6414667 C28.7797,15.8298 28.7830333,16.0181333 28.7830333,16.2081333 C28.7830333,22.0048 24.3697,28.6914667 16.3013667,28.6914667 C13.8247,28.6914667 11.5180333,27.9631333 9.57636667,26.7181333 C11.8663667,26.9864667 14.1963667,26.3731333 16.0713667,24.9031333 C14.1513667,24.8664667 12.5330333,23.5981333 11.9747,21.8548 C12.6347,21.9798 13.3130333,21.9564667 13.9547,21.7798 C11.9480333,21.3781333 10.4363667,19.6048 10.4363667,17.4814667 L10.4363667,17.4231333 C11.0280333,17.7514667 11.7063667,17.9481333 12.4230333,17.9714667 C11.2463667,17.1848 10.4713667,15.8431333 10.4713667,14.3214667 C10.4713667,13.5181333 10.6880333,12.7648 11.0663667,12.1148 C13.2297,14.7698 16.4613667,16.5181333 20.1080333,16.6981333 C20.0330333,16.3781333 19.9930333,16.0414667 19.9930333,15.6998 C19.9930333,13.2764667 21.9580333,11.3114667 24.3813667,11.3114667 C25.6430333,11.3114667 26.7830333,11.8448 27.5830333,12.6981333 C28.5830333,12.4998 30.8330333,12.2564667 30.8330333,12.2564667 C30.2463667,13.1364667 29.6280333,15.0214667 28.7697,15.6414667 M19.9997,-0.0002 C8.97136667,-0.0002 -0.0003,8.97146667 -0.0003,19.9998 C-0.0003,31.0281333 8.97136667,39.9998 19.9997,39.9998 C31.0280333,39.9998 39.9997,31.0281333 39.9997,19.9998 C39.9997,8.97146667 31.0280333,-0.0002 19.9997,-0.0002" id="Fill-400"></path>
                    </g>
                </g>
            </g>
        </g>
    </g>
</svg>