<?xml version="1.0" encoding="utf-8"?>
<!-- Generator: Adobe Illustrator 19.0.0, SVG Export Plug-In . SVG Version: 6.00 Build 0)  -->
<!DOCTYPE svg PUBLIC "-//W3C//DTD SVG 1.1//EN" "http://www.w3.org/Graphics/SVG/1.1/DTD/svg11.dtd">
<svg version="1.1" id="Layer_1" xmlns="http://www.w3.org/2000/svg" xmlns:xlink="http://www.w3.org/1999/xlink" x="0px" y="0px"
	 viewBox="0 0 40 40" enable-background="new 0 0 40 40" xml:space="preserve">
<path id="XMLID_2_" fill="#231F20" d="M20,0C9,0,0,9,0,20s9,20,20,20s20-9,20-20S31,0,20,0z M28.8,15.6c0,0.2,0,0.4,0,0.6
	c0,5.8-4.4,12.5-12.5,12.5c-2.5,0-4.8-0.7-6.7-2c2.3,0.3,4.6-0.3,6.5-1.8c-1.9,0-3.5-1.3-4.1-3c0.7,0.1,1.3,0.1,2-0.1
	c-2-0.4-3.5-2.2-3.5-4.3c0,0,0,0,0-0.1c0.6,0.3,1.3,0.5,2,0.5c-1.2-0.8-2-2.1-2-3.7c0-0.8,0.2-1.6,0.6-2.2c2.2,2.7,5.4,4.4,9,4.6
	C20,16.4,20,16,20,15.7c0-2.4,2-4.4,4.4-4.4c1.3,0,2.4,0.5,3.2,1.4c1-0.2,3.3-0.4,3.3-0.4C30.2,13.1,29.6,15,28.8,15.6z"/>
</svg>
